With: Katherine Heigl, Jennifer Tilly and the voice of Brad Dourif

Tiffany was de vriendin van Charles Lee Ray en besluit op een dag om de pop Chucky met de ziel van haar liefje opnieuw leven in te blazen. Maar als ze dan hoort dat Chucky nooit van plan was om met haar te trouwen, wordt ze boos en sluit hem op. Chucky ontsnapt en gebruikt voodoo- praktijken om ook Tiffany haar ziel in een pop te krijgen. Om allebei weer terug te keren als mens moeten de twee poppen naar het graf van Chucky om de ketting die Ray bij zich droeg toen hij stierf op te graven. Ze besluiten om stiekem mee te reizen met een jong paar dat op de vlucht is. En onderweg kunnen ze het niet laten om af en toe een aantal mensen om zeep te helpen.

Chucky hooks up with another murderous doll, the bridal gown-clad Tiffany, for a Route 66 murder spree with their unwitting hosts, two eloping high-school graduates. 

------------------ Dutch Friends ------------------
You can find my Friends at: http://www.Film-Test.nl 
------ They got my dutch subs ----- and more ------

General:

Complete name                    : Child's Play 4\Bride of Chucky.avi
Format                           : AVI
Format/Info                      : Audio Video Interleave
File size                        : 1.47 GiB
Duration                         : 1h 25mn
Overall bit rate                 : 2 473 Kbps

Video:

Format                           : MPEG-4 Visual
Format profile                   : Simple@L3
Format settings, BVOP            : No
Format settings, QPel            : No
Format settings, GMC             : No warppoints
Format settings, Matrix          : Default (H.263)
Codec ID                         : XVID
Codec ID/Hint                    : XviD
Duration                         : 1h 25mn
Bit rate                         : 2 014 Kbps
Width                            : 652 pixels
Height                           : 352 pixels
Display aspect ratio             : 1.852
Frame rate                       : 25.000 fps
Color space                      : YUV
Chroma subsampling               : 4:2:0
Bit depth                        : 8 bits
Scan type                        : Progressive
Bits/(Pixel*Frame)               : 0.351
Stream size                      : 1.20 GiB (81%)
Writing library                  : XviD 1.1.2 (UTC 2006-11-01)

Audio:

Format                           : AC-3
Format/Info                      : Audio Coding 3
Mode extension                   : CM (complete main)
Codec ID                         : 2000
Duration                         : 1h 25mn
Bit rate mode                    : Constant
Bit rate                         : 448 Kbps
Channel(s)                       : 6 channels
Channel positions                : Front: L C R, Side: L R, LFE
Sampling rate                    : 48.0 KHz
Bit depth                        : 16 bits
Stream size                      : 272 MiB (18%)
Alignment                        : Aligned on interleaves
Interleave, duration             : 32 ms (0.80 video frame)
Interleave, preload duration     : 32 ms

